<?xml version="1.0" standalone="no"?><!DOCTYPE svg PUBLIC "-//W3C//DTD SVG 1.1//EN" "http://www.w3.org/Graphics/SVG/1.1/DTD/svg11.dtd"><svg width="100%" height="100%" viewBox="0 0 645 585" version="1.1" xmlns="http://www.w3.org/2000/svg" xmlns:xlink="http://www.w3.org/1999/xlink" xml:space="preserve" style="fill-rule:evenodd;clip-rule:evenodd;stroke-linejoin:round;stroke-miterlimit:1.41421;"><g id="layer1"><path id="path2417" d="M298.485,535.917c-13.1236,-14.7063 -45.8926,-43.3765 -72.82,-63.7115c-79.7837,-60.251 -90.6423,-68.9706 -123.036,-98.7989c-59.7201,-54.9905 -85.0822,-110.238 -84.9953,-185.149c0.0424066,-36.5686 2.53494,-50.6574 12.7757,-72.2127c17.3743,-36.5704 42.9674,-63.7451 75.6882,-80.3653c23.175,-11.7715 34.6049,-17.0013 73.3056,-17.2153c40.4837,-0.223728 49.006,4.49652 72.82,17.5792c28.9857,15.9239 58.8201,49.9559 64.9873,74.1308l3.80902,14.9312l9.39335,-20.5637c53.0813,-116.205 222.551,-114.466 281.527,2.88822c18.709,37.2281 20.763,116.719 4.17298,161.496c-21.641,58.4099 -62.2881,102.941 -156.25,171.179c-61.622,44.7522 -131.364,112.463 -136.219,121.973c-5.63573,11.0395 -0.268816,1.73002 -25.1592,-26.1621Z" style="fill:#f00;fill-rule:nonzero;stroke-width:10px;stroke:#fff;"/></g></svg>