<?xml version="1.0" standalone="no"?><!DOCTYPE svg PUBLIC "-//W3C//DTD SVG 1.1//EN" "http://www.w3.org/Graphics/SVG/1.1/DTD/svg11.dtd"><svg width="100%" height="100%" viewBox="0 0 443 367" version="1.1" xmlns="http://www.w3.org/2000/svg" xmlns:xlink="http://www.w3.org/1999/xlink" xml:space="preserve" style="fill-rule:evenodd;clip-rule:evenodd;stroke-linejoin:round;stroke-miterlimit:1.41421;"><path id="path1312" d="M444.635,326.304l-79.6161,-0.63354c0,0 -0.393698,-79.4647 -0.836568,-80.1492l-80.5715,-1.77101l-1.024,-81.4176c0,0 -80.1219,-0.877038 -81.0619,-1.64277c-1.10121,-0.897101 -1.55154,-79.1255 -2.99,-79.6673l-80.3004,-0.610119l0,-80.4124l-121.856,0c0,0 0.216023,41.0777 1.61976,41.6064l79.2529,0.610119l0.535502,79.9099l80.8961,1.00516l1.024,80.4124l80.8961,1.00516l1.024,80.4124l81.9201,1.00516l0.534969,81.9202l122.857,0c0,0 -0.0102195,-40.9796 -2.304,-41.583Z" style="fill:#000;fill-rule:nonzero;"/></svg>