<?xml version="1.0" standalone="no"?><!DOCTYPE svg PUBLIC "-//W3C//DTD SVG 1.1//EN" "http://www.w3.org/Graphics/SVG/1.1/DTD/svg11.dtd"><svg width="100%" height="100%" viewBox="0 0 441 441" version="1.1" xmlns="http://www.w3.org/2000/svg" xmlns:xlink="http://www.w3.org/1999/xlink" xml:space="preserve" style="fill-rule:evenodd;clip-rule:evenodd;stroke-linejoin:round;stroke-miterlimit:1.41421;"><path d="M413.808,377.845c-6.1564,-6.15458 -14.681,-8.48359 -22.6359,-7.00521c-6.3893,-11.4303 -17.0436,-25.196 -30.5218,-38.667c-11.6687,-11.6687 -23.5502,-21.2167 -33.9516,-27.7234c12.1573,-13.8803 20.8682,-27.2667 24.5392,-37.2732c5.07651,1.835 10.0556,1.38921 13.1224,-1.67761c4.95732,-4.96278 3.06592,-14.8993 -4.22224,-22.1966c-7.30271,-7.30362 -17.2429,-9.19503 -22.201,-4.23224c-3.07866,3.07774 -3.50624,8.04507 -1.67306,13.128c-9.28054,3.39435 -21.4678,11.1465 -34.2619,21.9409l-233.95,-246.402l-48.3069,-7.94864l8.85022,47.4026l244.911,235.571c-10.4441,12.5003 -17.9516,24.3781 -21.2776,33.4686c-5.07742,-1.83683 -10.0556,-1.39831 -13.1224,1.6676c-4.96824,4.96278 -3.07138,14.9056 4.23134,22.1984c7.29361,7.30271 17.2337,9.19412 22.1947,4.23134c3.07593,-3.07138 3.50534,-8.05053 1.67852,-13.1289c10.0038,-3.66273 23.3965,-12.3801 37.2705,-24.5328c6.51121,10.405 16.0537,22.2884 27.7261,33.9516c13.4746,13.4718 27.2339,24.1252 38.6642,30.5264c-1.47837,7.95592 0.850633,16.4732 7.00431,22.6278c9.92289,9.92013 26.013,9.92013 35.9377,0c9.92194,-9.91557 9.92194,-25.9993 -0.00636837,-35.9258l0.000243312,-0.000332368Z" style="fill:#000;fill-rule:nonzero;stroke-width:5.7px;stroke:#fff;"/></svg>